<svg width="28" height="28" viewBox="0 0 28 28" fill="none" xmlns="http://www.w3.org/2000/svg">
<path d="M0.285156 2.57153C0.285156 1.46696 1.18059 0.571533 2.28516 0.571533H10.0402C11.1448 0.571533 12.0402 1.46696 12.0402 2.57153V12.3266H2.28516C1.18059 12.3266 0.285156 11.4312 0.285156 10.3266V2.57153Z" fill="white"/>
<path d="M0.285156 18.2451C0.285156 17.1405 1.18059 16.2451 2.28516 16.2451H12.0402V26.0002C12.0402 27.1048 11.1448 28.0002 10.0402 28.0002H2.28516C1.18059 28.0002 0.285156 27.1048 0.285156 26.0002V18.2451Z" fill="white"/>
<path d="M15.959 2.57153C15.959 1.46696 16.8544 0.571533 17.959 0.571533H25.7141C26.8186 0.571533 27.7141 1.46696 27.7141 2.57153V10.3266C27.7141 11.4312 26.8186 12.3266 25.7141 12.3266H15.959V2.57153Z" fill="white"/>
<path d="M15.959 16.2451H25.7141C26.8186 16.2451 27.7141 17.1405 27.7141 18.2451V26.0002C27.7141 27.1048 26.8186 28.0002 25.7141 28.0002H17.959C16.8544 28.0002 15.959 27.1048 15.959 26.0002V16.2451Z" fill="white"/>
</svg>
