<svg width="28" height="28" viewBox="0 0 28 28" fill="none" xmlns="http://www.w3.org/2000/svg">
<path d="M0.285156 2.57129C0.285156 1.46672 1.18059 0.571289 2.28516 0.571289H10.0402C11.1448 0.571289 12.0402 1.46672 12.0402 2.57129V12.3264H2.28516C1.18059 12.3264 0.285156 11.4309 0.285156 10.3264V2.57129Z" fill="#184777"/>
<path d="M0.285156 18.2446C0.285156 17.1401 1.18059 16.2446 2.28516 16.2446H12.0402V25.9997C12.0402 27.1043 11.1448 27.9997 10.0402 27.9997H2.28516C1.18059 27.9997 0.285156 27.1043 0.285156 25.9997V18.2446Z" fill="#184777"/>
<path d="M15.959 2.57129C15.959 1.46672 16.8544 0.571289 17.959 0.571289H25.7141C26.8186 0.571289 27.7141 1.46672 27.7141 2.57129V10.3264C27.7141 11.4309 26.8186 12.3264 25.7141 12.3264H15.959V2.57129Z" fill="#184777"/>
<path d="M15.959 16.2446H25.7141C26.8186 16.2446 27.7141 17.1401 27.7141 18.2446V25.9997C27.7141 27.1043 26.8186 27.9997 25.7141 27.9997H17.959C16.8544 27.9997 15.959 27.1043 15.959 25.9997V16.2446Z" fill="#184777"/>
</svg>
