<svg width="1728" height="1117" viewBox="0 0 1728 1117" fill="none" xmlns="http://www.w3.org/2000/svg">
<g clip-path="url(#clip0_652_2)">
<rect width="1728" height="1117" fill="url(#paint0_linear_652_2)"/>
<path d="M1671 959C1671 1025.27 1617.27 1079 1551 1079C1484.73 1079 1431 1025.27 1431 959C1431 892.726 1484.73 839 1551 839C1617.27 839 1671 892.726 1671 959ZM1449.99 959C1449.99 1014.79 1495.21 1060.01 1551 1060.01C1606.79 1060.01 1652.01 1014.79 1652.01 959C1652.01 903.215 1606.79 857.992 1551 857.992C1495.21 857.992 1449.99 903.215 1449.99 959Z" fill="#F6FAFF" fill-opacity="0.73"/>
<path d="M1477 793C1477 810.673 1462.67 825 1445 825C1427.33 825 1413 810.673 1413 793C1413 775.327 1427.33 761 1445 761C1462.67 761 1477 775.327 1477 793ZM1421.25 793C1421.25 806.116 1431.88 816.748 1445 816.748C1458.12 816.748 1468.75 806.116 1468.75 793C1468.75 779.884 1458.12 769.252 1445 769.252C1431.88 769.252 1421.25 779.884 1421.25 793Z" fill="#F6FAFF" fill-opacity="0.73"/>
<path d="M1605 732C1605 756.853 1584.85 777 1560 777C1535.15 777 1515 756.853 1515 732C1515 707.147 1535.15 687 1560 687C1584.85 687 1605 707.147 1605 732ZM1522.12 732C1522.12 752.919 1539.08 769.878 1560 769.878C1580.92 769.878 1597.88 752.919 1597.88 732C1597.88 711.081 1580.92 694.122 1560 694.122C1539.08 694.122 1522.12 711.081 1522.12 732Z" fill="#B7C4D3"/>
<path d="M368 1013C368 1216.24 203.241 1381 0 1381C-203.241 1381 -368 1216.24 -368 1013C-368 809.759 -203.241 645 0 645C203.241 645 368 809.759 368 1013ZM-261.652 1013C-261.652 1157.51 -144.507 1274.65 0 1274.65C144.507 1274.65 261.652 1157.51 261.652 1013C261.652 868.493 144.507 751.348 0 751.348C-144.507 751.348 -261.652 868.493 -261.652 1013Z" fill="#F6FAFF" fill-opacity="0.7"/>
</g>
<defs>
<linearGradient id="paint0_linear_652_2" x1="864" y1="0" x2="864" y2="1117" gradientUnits="userSpaceOnUse">
<stop stop-color="#184777"/>
<stop offset="1" stop-color="#082D53"/>
</linearGradient>
<clipPath id="clip0_652_2">
<rect width="1728" height="1117" fill="white"/>
</clipPath>
</defs>
</svg>
